<svg width="283.693" height="89.258" viewBox="0 0 283.693 89.258" xmlns="http://www.w3.org/2000/svg"><g id="svgGroup" stroke-linecap="round" fill-rule="evenodd" font-size="9pt" stroke="#fff" stroke-width="0" fill="#fff" style="fill:#fff"><path d="M 28.664 46.582 L 28.664 63.33 A 24.42 24.42 0 0 1 24.558 64.473 A 19.32 19.32 0 0 1 21.096 64.795 A 19.41 19.41 0 0 1 6.759 58.768 A 24.619 24.619 0 0 1 6.13 58.105 A 23.153 23.153 0 0 1 0.016 42.648 A 29.861 29.861 0 0 1 0.002 41.748 A 24.339 24.339 0 0 1 2.4 30.893 A 24.445 24.445 0 0 1 7.375 24.121 A 24.972 24.972 0 0 1 25.48 16.943 A 22.923 22.923 0 0 1 25.49 16.943 Q 31.203 16.943 36.428 19.238 A 23.575 23.575 0 0 1 40.962 21.828 A 18.398 18.398 0 0 1 44.631 25.391 A 20.896 20.896 0 0 1 47.947 31.813 Q 48.909 34.763 49.315 38.357 A 49.859 49.859 0 0 1 49.611 43.945 L 49.611 59.961 A 37.445 37.445 0 0 1 48.483 69.397 A 27.36 27.36 0 0 1 42.214 81.128 A 24.456 24.456 0 0 1 24.778 89.208 A 33.169 33.169 0 0 1 22.951 89.258 Q 19.343 89.258 13.835 87.456 A 66.454 66.454 0 0 1 13.82 87.451 L 13.82 70.85 A 16.103 16.103 0 0 0 17.861 72.429 A 13.82 13.82 0 0 0 21.047 72.803 A 11.98 11.98 0 0 0 24.237 72.401 A 8.554 8.554 0 0 0 28.664 69.556 Q 31.35 66.309 31.35 60.254 L 31.35 41.943 A 13.916 13.916 0 0 0 31.094 39.145 Q 30.211 34.866 26.286 34.349 A 8.706 8.706 0 0 0 25.149 34.277 A 6.18 6.18 0 0 0 20.784 36.058 A 8.228 8.228 0 0 0 20.534 36.304 A 7.15 7.15 0 0 0 19.115 38.338 A 6.282 6.282 0 0 0 18.557 40.967 A 6.763 6.763 0 0 0 18.998 43.445 A 6.162 6.162 0 0 0 20.437 45.605 Q 22.316 47.461 25.1 47.461 Q 26.955 47.461 28.664 46.582 Z M 144.094 0 L 162.356 0 L 162.356 39.893 A 19.913 19.913 0 0 0 162.633 43.378 Q 163.722 49.469 169.089 49.606 A 9.769 9.769 0 0 0 169.338 49.609 A 7.228 7.228 0 0 0 172.403 48.968 A 7.092 7.092 0 0 0 174.392 47.583 A 6.595 6.595 0 0 0 176.466 42.81 A 7.916 7.916 0 0 0 176.467 42.676 A 7.492 7.492 0 0 0 175.994 39.974 A 6.805 6.805 0 0 0 174.514 37.671 A 6.372 6.372 0 0 0 169.905 35.647 A 7.803 7.803 0 0 0 169.729 35.645 A 5.624 5.624 0 0 0 168.075 35.913 Q 167.353 36.135 166.569 36.542 A 14.183 14.183 0 0 0 165.139 37.402 L 165.139 17.285 Q 167.606 17.061 169.158 17.008 A 25.704 25.704 0 0 1 170.022 16.992 A 23.914 23.914 0 0 1 187.443 24.184 A 29.589 29.589 0 0 1 187.673 24.414 A 24.468 24.468 0 0 1 195.021 42.122 A 29.624 29.624 0 0 1 195.022 42.285 A 25.195 25.195 0 0 1 192.787 52.973 A 24.782 24.782 0 0 1 187.551 60.303 Q 180.08 67.627 169.191 67.627 Q 163.723 67.627 158.523 65.234 A 25.097 25.097 0 0 1 152.486 61.379 A 22.519 22.519 0 0 1 149.953 58.789 Q 144.094 51.758 144.094 40.576 L 144.094 0 Z M 256.887 0 L 275.149 0 L 275.149 18.652 L 283.352 18.652 L 283.352 37.939 L 275.149 37.939 A 28.975 28.975 0 0 0 275.263 40.619 Q 275.508 43.243 276.276 44.833 A 5.395 5.395 0 0 0 276.98 45.947 Q 278.702 48.014 283.123 48.137 A 20.518 20.518 0 0 0 283.693 48.145 L 283.693 67.334 A 139.277 139.277 0 0 1 283.031 67.355 Q 282.107 67.383 281.594 67.383 Q 275.393 67.383 269.9 64.502 Q 264.406 61.621 261.086 56.689 A 23.055 23.055 0 0 1 258.072 49.883 Q 256.887 45.515 256.887 39.99 L 256.887 0 Z M 116.213 0 L 134.475 0 L 134.475 66.65 L 116.213 66.65 L 116.213 0 Z M 100.966 24.159 A 24.09 24.09 0 0 0 83.449 16.943 A 33.12 33.12 0 0 0 83.105 16.945 A 25.543 25.543 0 0 0 64.895 24.243 A 24.673 24.673 0 0 0 59.624 31.555 A 25.008 25.008 0 0 0 57.375 42.236 A 29.119 29.119 0 0 0 57.377 42.564 A 24.314 24.314 0 0 0 64.895 60.181 A 29.915 29.915 0 0 0 65.012 60.297 A 24.799 24.799 0 0 0 83.01 67.627 A 30.137 30.137 0 0 0 83.175 67.627 A 24.758 24.758 0 0 0 101.101 60.205 Q 108.596 52.783 108.596 42.236 A 29.052 29.052 0 0 0 108.594 41.912 A 24.401 24.401 0 0 0 101.198 24.39 A 29.791 29.791 0 0 0 100.966 24.159 Z M 243.642 24.159 A 24.09 24.09 0 0 0 226.125 16.943 A 33.12 33.12 0 0 0 225.781 16.945 A 25.543 25.543 0 0 0 207.57 24.243 A 24.673 24.673 0 0 0 202.3 31.555 A 25.008 25.008 0 0 0 200.051 42.236 A 29.119 29.119 0 0 0 200.053 42.564 A 24.314 24.314 0 0 0 207.57 60.181 A 29.915 29.915 0 0 0 207.688 60.297 A 24.799 24.799 0 0 0 225.686 67.627 A 30.137 30.137 0 0 0 225.851 67.627 A 24.758 24.758 0 0 0 243.776 60.205 Q 251.272 52.783 251.272 42.236 A 29.052 29.052 0 0 0 251.27 41.912 A 24.401 24.401 0 0 0 243.874 24.39 A 29.791 29.791 0 0 0 243.642 24.159 Z M 82.961 34.961 A 6.646 6.646 0 0 0 78.11 36.954 A 8.153 8.153 0 0 0 77.981 37.085 A 7.203 7.203 0 0 0 75.93 42.285 A 7.182 7.182 0 0 0 78.005 47.461 A 7.076 7.076 0 0 0 80.282 49.072 A 6.663 6.663 0 0 0 82.961 49.609 Q 85.891 49.609 87.966 47.461 A 7.182 7.182 0 0 0 90.041 42.285 A 7.203 7.203 0 0 0 87.99 37.085 Q 85.94 34.961 82.961 34.961 Z M 225.637 34.961 A 6.646 6.646 0 0 0 220.785 36.954 A 8.153 8.153 0 0 0 220.656 37.085 A 7.203 7.203 0 0 0 218.606 42.285 A 7.182 7.182 0 0 0 220.681 47.461 A 7.076 7.076 0 0 0 222.957 49.072 A 6.663 6.663 0 0 0 225.637 49.609 Q 228.566 49.609 230.642 47.461 A 7.182 7.182 0 0 0 232.717 42.285 A 7.203 7.203 0 0 0 230.666 37.085 Q 228.615 34.961 225.637 34.961 Z" vector-effect="non-scaling-stroke"/></g></svg>